PathFileType	4	(X/Y/Z)	Patient4_TMGait_0pt4_02_right_10.trc.trc
DataRate	CameraRate	NumFrames	NumMarkers	Units	OrigDataRate	OrigDataStartFrame	OrigNumFrames
77.777777777778	77.777777777778	6	33	mm	77.777777777778	36	       141
Frame#	Time	Sacral			L.Shoulder			Chest			R.Shoulder			Neck			R.ASIS			L.ASIS			R.Thigh.Superior			R.Thigh.Lateral			R.Thigh.Inferior			R.Patella			L.Thigh.Superior			L.Thigh.Lateral			L.Thigh.Inferior			L.Patella			L.Shank.Superior			L.Shank.Lateral			L.Shank.Inferior			R.Shank.Superior			R.Shank.Lateral			R.Shank.Inferior			R.Heel			R.Midfoot.Superior			R.Midfoot.Lateral			R.Toe			L.Heel			L.Midfoot.Lateral			L.Midfoot.Superior			L.Toe			L.Elbow			L.Wrist			R.Elbow			R.Wrist			
		X1	Y1	Z1	X2	Y2	Z2	X3	Y3	Z3	X4	Y4	Z4	X5	Y5	Z5	X6	Y6	Z6	X7	Y7	Z7	X8	Y8	Z8	X9	Y9	Z9	X10	Y10	Z10	X11	Y11	Z11	X12	Y12	Z12	X13	Y13	Z13	X14	Y14	Z14	X15	Y15	Z15	X16	Y16	Z16	X17	Y17	Z17	X18	Y18	Z18	X19	Y19	Z19	X20	Y20	Z20	X21	Y21	Z21	X22	Y22	Z22	X23	Y23	Z23	X24	Y24	Z24	X25	Y25	Z25	X26	Y26	Z26	X27	Y27	Z27	X28	Y28	Z28	X29	Y29	Z29	X30	Y30	Z30	X31	Y31	Z31	X32	Y32	Z32	X33	Y33	Z33	

36	13.200000000000	903.411752979208	992.027982927934	477.474009419470	1083.494245325132	1428.295153730539	304.409041664343	1176.519753878366	1361.923592585121	471.846110849677	1078.427596341936	1431.380650572040	639.892156420224	1055.947332892936	1489.042742298600	460.915666368965	1131.895269487334	940.731947068009	604.958939621425	1128.380929015416	957.542956218414	328.570408453929	1192.715390586025	746.026929080571	576.825484783060	1120.941839406996	630.609225603552	636.200864861181	1205.295167752987	584.768830789927	558.390812581065	1213.130237453519	495.185653168831	565.375512732041	1177.303802016302	740.810220463954	356.995328762526	1102.606822443893	622.570114075997	283.295580994660	1191.378002536449	543.599542944707	344.095348748628	1188.432354234954	458.539090048454	339.257423537179	1124.004324242721	396.429186846668	330.865053747920	987.294543940325	344.600018959592	280.235762533516	981.064446657268	216.350740609858	336.594800281541	1182.528051289721	404.438422597700	573.309460340725	1109.248023011116	302.858074568242	637.584818038236	1150.345316465458	206.680735695569	575.356076281881	1015.246402334501	42.049538105526	546.553028239270	1184.747127142719	98.357615625815	584.898864047984	1097.869141442535	37.313664067656	623.042493112880	1305.563864501942	48.614561642407	613.903080134850	795.866051663888	130.996228206693	372.158535684327	859.929055408159	96.649891915051	291.918035111669	961.312746078715	120.783002362979	315.152213641532	1055.389459749683	33.853519084876	285.895980009105	1091.344680448504	1078.326244313521	180.831502833527	1308.992748486530	934.887528528110	206.996615668108	1025.944565966438	1085.717385054395	756.441825774502	1135.162584258797	848.456342887254	772.004742505224	
37	13.212857142857	903.106984052929	991.960999184931	481.420256305187	1080.515506122214	1428.730190285058	307.157688169020	1175.519694863108	1362.360164341369	473.527066782292	1079.216026741452	1431.409727728561	642.720678473766	1054.589886624143	1489.237722642175	464.032465667015	1132.616804080943	941.078138347634	606.891528113752	1126.867909898333	957.806659981612	330.582054629858	1191.904433866597	745.450433802730	579.259125239438	1119.218603008135	630.281798537292	638.155315363521	1203.209077681677	584.112916100580	560.248019654951	1210.294099762019	494.500094450717	566.776672464147	1180.787599270124	743.975284230637	358.340478199892	1109.998721925340	624.137819810187	284.013593769258	1201.553476027345	547.243738467488	343.834764132549	1200.147297732248	461.325974524812	338.641338324164	1134.438635755425	398.835031443647	330.701470932602	995.816029488497	350.930556801986	280.943667342095	986.699666689176	222.569477145493	336.953215836474	1179.332443559769	403.813776769715	574.428681867776	1105.747462523724	302.337753982728	638.470534696288	1146.080723609715	206.237370447728	575.799721709804	1010.124753502746	42.046856541891	546.651165533258	1179.678341425341	98.382771883814	585.259941945995	1092.718573607883	37.274763565699	623.207794928547	1300.439965301559	48.446794697102	614.174167165941	798.642119458399	144.275833705043	373.330966329356	861.041399967414	107.013691556876	292.825713080879	963.910842950464	126.241784590131	315.662972810388	1053.363470558429	33.642592847857	286.102418823662	1085.533148435589	1078.118668174653	184.588220467836	1298.601100185296	926.723062951157	207.226675738746	1033.475988920177	1084.858557114432	760.489377310253	1149.486740036781	850.794710136285	773.461452704575	
38	13.225714285714	902.705076679101	992.042090340543	485.249896088474	1077.498038222043	1429.168744652588	309.704831892207	1174.548252180353	1362.835200745159	474.956793404524	1080.166939516606	1431.542995728526	645.323946392007	1053.321347593786	1489.501951776148	466.929503544082	1133.201125987438	941.430375450534	608.692514080384	1125.066289361089	958.036327232293	332.567955470108	1190.807931356004	744.872719554986	581.362070427189	1117.327383514271	630.018128278205	640.001057422865	1200.784221041271	583.486926609027	561.886670699505	1207.084055844432	493.840437577746	568.075787071781	1183.930337336318	747.378121153881	359.374617777870	1116.698257830773	626.145797110785	284.512133108832	1210.943723712480	551.384414386133	343.250627821380	1211.201850331666	464.746570300808	337.808410585073	1144.520654934635	401.745108832123	330.368518874042	1004.279280146087	357.088557323731	281.584851535534	992.896204914360	228.618836540286	337.351927615911	1175.816321566674	403.234008386152	575.479893457816	1101.949034476050	301.839437278146	639.286538128184	1141.586632211835	205.817756863736	576.203561676024	1004.888135428868	42.045076112502	546.742990474924	1174.506594636068	98.347141379024	585.578076572066	1087.449911464876	37.222097616608	623.349536960754	1295.209773314572	48.186316577422	614.404170778297	802.650368501870	156.217544119188	374.720424747862	863.494744945687	116.645590807843	293.854356422348	967.576558117849	131.663707434628	316.241079671287	1053.021076779515	33.798587357331	286.131093535888	1079.638449465177	1077.908405408992	188.232989915892	1287.320120986739	918.166258835782	207.201754637914	1041.268295547048	1084.295657086283	764.390985372966	1164.237130655261	853.774171347157	774.551165062088	
39	13.238571428571	902.217047921227	992.282237565060	488.939335629264	1074.499669633167	1429.626807145621	312.056034041227	1173.622420343087	1363.359679372863	476.156665379046	1081.263461828864	1431.801462503058	647.696289532423	1052.160006867136	1489.853354947938	469.596636378227	1133.653076599178	941.791246939114	610.376619051479	1123.012773189602	958.270643075379	334.534845667778	1189.458589441532	744.319842331613	583.085085704529	1115.305836657539	629.838764295201	641.720732680313	1198.047596656092	582.901749599391	563.281628191830	1203.529430520126	493.226850891977	569.245666846612	1186.669056194228	750.979875763503	360.156124445111	1122.593370929665	628.559908158736	284.830668012949	1219.409312354620	555.947485747980	342.388799408281	1221.425079734378	468.733975175876	336.762090734273	1154.115868952112	405.094818783014	329.856200032038	1012.577244190345	362.820916404078	282.139945275684	999.721549500402	234.198895971416	337.719438582246	1172.016716642722	402.719819637559	576.447618705381	1097.903420157404	301.387684017876	640.028745057660	1136.917250384684	205.439974887703	576.564966486124	999.592028067012	42.049072995953	546.838460114336	1169.279461950339	98.263533778014	585.845012958653	1082.121079837519	37.168719408562	623.475930923464	1289.928273696188	47.866561517746	614.599577346892	808.031141046544	166.139965758225	376.237328460257	867.516685077101	124.959603459895	294.916096130711	972.527693259158	136.723279342562	316.772244680166	1054.826344543679	34.364770912538	285.879955224565	1073.680984099422	1077.717082930416	191.784314335187	1275.096485591414	909.319551073556	206.938122738136	1049.277648347838	1084.044807518952	768.098211740476	1179.386853835024	857.464084565490	775.226158751549	
40	13.251428571429	901.651527489950	992.690522060671	492.479422375648	1071.574404719383	1430.118921555051	314.223977479550	1172.757876220029	1363.941832240226	477.153740407717	1082.488030503071	1432.203980385806	649.839395025885	1051.121275369651	1490.306524027027	472.030330416917	1133.979011283340	942.162828641146	611.949894663042	1120.753285229155	958.560092517295	336.472610788023	1187.885842107756	743.808508210828	584.425879945080	1113.154436926457	629.754439560332	643.300305631049	1195.016566178219	582.362445756594	564.432007260296	1199.649546671853	492.676908521711	570.265329872848	1188.953468825255	754.738865158325	360.752540269182	1127.624320924975	631.326907695870	285.012585242087	1226.866506387830	560.841073690614	341.304538090835	1230.697090055454	473.206380200296	335.520652678034	1163.144923363599	408.799796950362	329.160797821205	1020.661760911447	367.874760728679	282.581756116741	1007.284000827193	239.022438911748	337.970984055548	1167.959195805747	402.288549133436	577.318244327680	1093.645891992642	301.002500145969	640.689140679214	1132.114835678217	205.118874116582	576.881652684010	994.282252287833	42.062192770229	546.942143991102	1164.034595402592	98.146822382207	586.059292173367	1076.778810459782	37.124284654073	623.592647264157	1284.638712206634	47.518712991476	614.768190924503	814.941177268096	173.461158017999	377.764118716912	873.334659226972	131.434288362545	295.897971427887	978.998859619775	141.094669322015	317.128567342736	1059.205799272015	35.333428751846	285.241903152459	1067.679641414215	1077.570260732136	195.258454864562	1261.890817975510	900.309011414571	206.465020063126	1057.455144231390	1084.116521995582	771.567444237628	1194.897066969450	861.935589963575	775.442215794536	
41	13.264285714286	901.016570652816	993.270819546862	495.873046282283	1068.767550523680	1430.654659913394	316.226213068461	1171.968229668976	1364.584134106259	477.977120741260	1083.824570972342	1432.762185002942	651.761630627641	1050.216442985803	1490.868780461900	474.233188424690	1134.186661110697	942.544561819305	613.407695893010	1118.343784823821	958.960636147046	338.352754623358	1186.112388567703	743.345665622320	585.415055678824	1110.850125522939	629.767454335470	644.730958667062	1191.701625224206	581.868989829979	565.354539501851	1195.457271982204	492.203955738925	571.123694410327	1190.748162868646	758.607483983901	361.226801167209	1131.774925516135	634.373940064788	285.104108004115	1233.277555013233	565.956702372099	340.062992713732	1238.943138828035	478.068049044517	334.123245995900	1171.573022577604	412.760931229238	328.291210944861	1028.535780503509	372.019841077552	282.880307053454	1015.710398608301	242.844482792991	338.019219349852	1163.660210129521	401.952082927280	578.082386209816	1089.198360223574	300.697102863167	641.259468942862	1127.208838980052	204.863944012698	577.152387150495	988.991038063448	42.086000284934	547.053873934512	1158.797431156355	98.012097830534	586.225170791503	1071.455412426013	37.094532024777	623.702817033718	1279.369569670404	47.168505237765	614.917229618904	823.539467175871	177.754984994748	379.165160498765	881.153183892906	135.669514749205	296.671693388709	987.209648156568	144.490879159607	317.182565039875	1066.495231001958	36.644797351293	284.113172704191	1061.652823519201	1077.493075930191	198.664829325489	1247.687377410946	891.280724644957	205.824163468048	1065.749811920983	1084.512530055652	774.763317696896	1210.715597502089	867.255798980288	775.159832764204	
